HIERARCHY
ROOT Hips
{
	OFFSET 0.076331 88.517960 4.102760
	CHANNELS 6 Xposition Yposition Zposition Zrotation Yrotation Xrotation 
	JOINT Spine
	{
		OFFSET -0.000000 8.814246 -2.080107
		CHANNELS 3 Zrotation Yrotation Xrotation
		JOINT Spine1
		{
			OFFSET -0.000000 8.844141 -0.000000
			CHANNELS 3 Zrotation Yrotation Xrotation
			JOINT Spine2
			{
				OFFSET -0.000000 11.682268 -0.000000
				CHANNELS 3 Zrotation Yrotation Xrotation
				JOINT Spine3
				{
					OFFSET -0.000000 11.746700 0.000000
					CHANNELS 3 Zrotation Yrotation Xrotation
					JOINT Neck
					{
						OFFSET -0.000000 17.658264 0.000000
						CHANNELS 3 Zrotation Yrotation Xrotation
						JOINT Neck1
						{
							OFFSET -0.000000 5.101515 0.000000
							CHANNELS 3 Zrotation Yrotation Xrotation
							JOINT Head
							{
								OFFSET 0.000000 5.101515 -0.000000
								CHANNELS 3 Zrotation Yrotation Xrotation
								JOINT HeadEnd
								{
									OFFSET 0.000000 11.655085 0.000000
									CHANNELS 3 Zrotation Yrotation Xrotation
									End Site
									{
										OFFSET 0.000000 0.000000 0.000000
									}
								}
							}
						}
					}
					JOINT RightShoulder
					{
						OFFSET -2.625389 11.175210 -0.000000
						CHANNELS 3 Zrotation Yrotation Xrotation
						JOINT RightArm
						{
							OFFSET -0.000000 10.434715 -0.000000
							CHANNELS 3 Zrotation Yrotation Xrotation
							JOINT RightForeArm
							{
								OFFSET 0.000000 29.628420 0.000000
								CHANNELS 3 Zrotation Yrotation Xrotation
								JOINT RightHand
								{
									OFFSET -0.000000 22.857611 0.000000
									CHANNELS 3 Zrotation Yrotation Xrotation
									JOINT RightHandThumb1
									{
										OFFSET -2.867323 3.959563 2.944291
										CHANNELS 3 Zrotation Yrotation Xrotation
										JOINT RightHandThumb2
										{
											OFFSET -0.000000 3.350399 -0.000000
											CHANNELS 3 Zrotation Yrotation Xrotation
											JOINT RightHandThumb3
											{
												OFFSET 0.000000 3.756509 -0.000000
												CHANNELS 3 Zrotation Yrotation Xrotation
												JOINT RightHandThumb4
												{
													OFFSET -0.000000 3.147345 -0.000000
													CHANNELS 3 Zrotation Yrotation Xrotation
													End Site
													{
														OFFSET 0.000000 0.000000 0.000000
													}
												}
											}
										}
									}
									JOINT RightHandIndex1
									{
										OFFSET -0.086752 10.030893 2.345280
										CHANNELS 3 Zrotation Yrotation Xrotation
										JOINT RightHandIndex2
										{
											OFFSET 0.000000 4.061090 -0.000000
											CHANNELS 3 Zrotation Yrotation Xrotation
											JOINT RightHandIndex3
											{
												OFFSET -0.000000 3.248873 0.000000
												CHANNELS 3 Zrotation Yrotation Xrotation
												JOINT RightHandIndex4
												{
													OFFSET -0.000000 2.639709 0.000000
													CHANNELS 3 Zrotation Yrotation Xrotation
													End Site
													{
														OFFSET 0.000000 0.000000 0.000000
													}
												}
											}
										}
									}
									JOINT RightHandMiddle1
									{
										OFFSET 0.104102 9.502952 0.006768
										CHANNELS 3 Zrotation Yrotation Xrotation
										JOINT RightHandMiddle2
										{
											OFFSET -0.000000 4.568727 0.000000
											CHANNELS 3 Zrotation Yrotation Xrotation
											JOINT RightHandMiddle3
											{
												OFFSET -0.000000 3.654981 -0.000000
												CHANNELS 3 Zrotation Yrotation Xrotation
												JOINT RightHandMiddle4
												{
													OFFSET 0.000000 2.741236 0.000000
													CHANNELS 3 Zrotation Yrotation Xrotation
													End Site
													{
														OFFSET 0.000000 0.000000 0.000000
													}
												}
											}
										}
									}
									JOINT RightHandRing1
									{
										OFFSET 0.086752 8.921708 -2.267442
										CHANNELS 3 Zrotation Yrotation Xrotation
										JOINT RightHandRing2
										{
											OFFSET 0.000000 4.061090 -0.000000
											CHANNELS 3 Zrotation Yrotation Xrotation
											JOINT RightHandRing3
											{
												OFFSET 0.000000 3.654981 -0.000000
												CHANNELS 3 Zrotation Yrotation Xrotation
												JOINT RightHandRing4
												{
													OFFSET -0.000000 2.741236 0.000000
													CHANNELS 3 Zrotation Yrotation Xrotation
													End Site
													{
														OFFSET 0.000000 0.000000 0.000000
													}
												}
											}
										}
									}
									JOINT RightHandPinky1
									{
										OFFSET -0.173504 7.976997 -4.467199
										CHANNELS 3 Zrotation Yrotation Xrotation
										JOINT RightHandPinky2
										{
											OFFSET -0.000000 3.350399 -0.000000
											CHANNELS 3 Zrotation Yrotation Xrotation
											JOINT RightHandPinky3
											{
												OFFSET -0.000000 2.842763 0.000000
												CHANNELS 3 Zrotation Yrotation Xrotation
												JOINT RightHandPinky4
												{
													OFFSET 0.000000 2.639709 -0.000000
													CHANNELS 3 Zrotation Yrotation Xrotation
													End Site
													{
														OFFSET 0.000000 0.000000 0.000000
													}
												}
											}
										}
									}
									JOINT RightForeArmEnd
									{
										OFFSET 0.000000 0.000000 0.000000
										CHANNELS 3 Zrotation Yrotation Xrotation
										End Site
										{
											OFFSET 0.000000 0.000000 0.000000
										}
									}
								}
								JOINT RightArmEnd
								{
									OFFSET 0.000000 0.000000 0.000000
									CHANNELS 3 Zrotation Yrotation Xrotation
									End Site
									{
										OFFSET 0.000000 0.000000 0.000000
									}
								}
							}
						}
					}
					JOINT LeftShoulder
					{
						OFFSET 2.625389 11.175210 -0.000000
						CHANNELS 3 Zrotation Yrotation Xrotation
						JOINT LeftArm
						{
							OFFSET -0.000000 10.813635 0.000000
							CHANNELS 3 Zrotation Yrotation Xrotation
							JOINT LeftForeArm
							{
								OFFSET 0.000000 28.724781 0.000000
								CHANNELS 3 Zrotation Yrotation Xrotation
								JOINT LeftHand
								{
									OFFSET 0.644384 25.716167 -0.328871
									CHANNELS 3 Zrotation Yrotation Xrotation
									JOINT LeftHandThumb1
									{
										OFFSET 2.867323 3.959563 2.944291
										CHANNELS 3 Zrotation Yrotation Xrotation
										JOINT LeftHandThumb2
										{
											OFFSET 0.000000 3.350399 0.000000
											CHANNELS 3 Zrotation Yrotation Xrotation
											JOINT LeftHandThumb3
											{
												OFFSET 0.000000 3.756509 0.000000
												CHANNELS 3 Zrotation Yrotation Xrotation
												JOINT LeftHandThumb4
												{
													OFFSET -0.000000 3.100000 -0.000000
													CHANNELS 3 Zrotation Yrotation Xrotation
													End Site
													{
														OFFSET 0.000000 0.000000 0.000000
													}
												}
											}
										}
									}
									JOINT LeftHandIndex1
									{
										OFFSET 0.086752 10.030893 2.345280
										CHANNELS 3 Zrotation Yrotation Xrotation
										JOINT LeftHandIndex2
										{
											OFFSET -0.000000 4.061090 -0.000000
											CHANNELS 3 Zrotation Yrotation Xrotation
											JOINT LeftHandIndex3
											{
												OFFSET -0.000000 3.248873 0.000000
												CHANNELS 3 Zrotation Yrotation Xrotation
												JOINT LeftHandIndex4
												{
													OFFSET 0.000000 2.639709 0.000000
													CHANNELS 3 Zrotation Yrotation Xrotation
													End Site
													{
														OFFSET 0.000000 0.000000 0.000000
													}
												}
											}
										}
									}
									JOINT LeftHandMiddle1
									{
										OFFSET -0.104102 9.502952 0.006768
										CHANNELS 3 Zrotation Yrotation Xrotation
										JOINT LeftHandMiddle2
										{
											OFFSET 0.000000 4.568727 0.000000
											CHANNELS 3 Zrotation Yrotation Xrotation
											JOINT LeftHandMiddle3
											{
												OFFSET 0.000000 3.654981 -0.000000
												CHANNELS 3 Zrotation Yrotation Xrotation
												JOINT LeftHandMiddle4
												{
													OFFSET -0.000000 2.741236 -0.000000
													CHANNELS 3 Zrotation Yrotation Xrotation
													End Site
													{
														OFFSET 0.000000 0.000000 0.000000
													}
												}
											}
										}
									}
									JOINT LeftHandRing1
									{
										OFFSET -0.086752 8.921708 -2.267442
										CHANNELS 3 Zrotation Yrotation Xrotation
										JOINT LeftHandRing2
										{
											OFFSET 0.000000 4.061090 0.000000
											CHANNELS 3 Zrotation Yrotation Xrotation
											JOINT LeftHandRing3
											{
												OFFSET -0.000000 3.654981 0.000000
												CHANNELS 3 Zrotation Yrotation Xrotation
												JOINT LeftHandRing4
												{
													OFFSET -0.000000 2.741236 -0.000000
													CHANNELS 3 Zrotation Yrotation Xrotation
													End Site
													{
														OFFSET 0.000000 0.000000 0.000000
													}
												}
											}
										}
									}
									JOINT LeftHandPinky1
									{
										OFFSET 0.173504 7.976997 -4.467199
										CHANNELS 3 Zrotation Yrotation Xrotation
										JOINT LeftHandPinky2
										{
											OFFSET 0.000000 3.350399 0.000000
											CHANNELS 3 Zrotation Yrotation Xrotation
											JOINT LeftHandPinky3
											{
												OFFSET 0.000000 2.842763 0.000000
												CHANNELS 3 Zrotation Yrotation Xrotation
												JOINT LeftHandPinky4
												{
													OFFSET -0.000000 2.639709 -0.000000
													CHANNELS 3 Zrotation Yrotation Xrotation
													End Site
													{
														OFFSET 0.000000 0.000000 0.000000
													}
												}
											}
										}
									}
									JOINT LeftForeArmEnd
									{
										OFFSET 0.000000 0.000000 0.000000
										CHANNELS 3 Zrotation Yrotation Xrotation
										End Site
										{
											OFFSET 0.000000 0.000000 0.000000
										}
									}
								}
								JOINT LeftArmEnd
								{
									OFFSET 0.000000 0.000000 0.000000
									CHANNELS 3 Zrotation Yrotation Xrotation
									End Site
									{
										OFFSET 0.000000 0.000000 0.000000
									}
								}
							}
						}
					}
				}
			}
		}
	}
	JOINT RightUpLeg
	{
		OFFSET -11.289943 -0.000000 -0.000000
		CHANNELS 3 Zrotation Yrotation Xrotation
		JOINT RightLeg
		{
			OFFSET -0.000000 -38.200325 0.000000
			CHANNELS 3 Zrotation Yrotation Xrotation
			JOINT RightFoot
			{
				OFFSET -0.000000 -39.900856 -0.000000
				CHANNELS 3 Zrotation Yrotation Xrotation
				JOINT RightToeBase
				{
					OFFSET 0.000000 -0.000000 15.261641
					CHANNELS 3 Zrotation Yrotation Xrotation
					JOINT RightToeBaseEnd
					{
						OFFSET 0.000000 0.000000 7.370709
						CHANNELS 3 Zrotation Yrotation Xrotation
						End Site
						{
							OFFSET 0.000000 0.000000 0.000000
						}
					}
				}
				JOINT RightLegEnd
				{
					OFFSET 0.000000 0.000000 0.000000
					CHANNELS 3 Zrotation Yrotation Xrotation
					End Site
					{
						OFFSET 0.000000 0.000000 0.000000
					}
				}
			}
			JOINT RightUpLegEnd
			{
				OFFSET 0.000000 0.000000 0.000000
				CHANNELS 3 Zrotation Yrotation Xrotation
				End Site
				{
					OFFSET 0.000000 0.000000 0.000000
				}
			}
		}
	}
	JOINT LeftUpLeg
	{
		OFFSET 11.315661 -0.000000 -0.000000
		CHANNELS 3 Zrotation Yrotation Xrotation
		JOINT LeftLeg
		{
			OFFSET -0.000000 -38.200325 0.000000
			CHANNELS 3 Zrotation Yrotation Xrotation
			JOINT LeftFoot
			{
				OFFSET -0.000000 -39.900856 0.000000
				CHANNELS 3 Zrotation Yrotation Xrotation
				JOINT LeftToeBase
				{
					OFFSET -0.000000 0.000000 15.261641
					CHANNELS 3 Zrotation Yrotation Xrotation
					JOINT LeftToeBaseEnd
					{
						OFFSET 0.000000 -0.000000 7.539996
						CHANNELS 3 Zrotation Yrotation Xrotation
						End Site
						{
							OFFSET 0.000000 0.000000 0.000000
						}
					}
				}
				JOINT LeftLegEnd
				{
					OFFSET 0.000000 0.000000 0.000000
					CHANNELS 3 Zrotation Yrotation Xrotation
					End Site
					{
						OFFSET 0.000000 0.000000 0.000000
					}
				}
			}
			JOINT LeftUpLegEnd
			{
				OFFSET 0.000000 0.000000 0.000000
				CHANNELS 3 Zrotation Yrotation Xrotation
				End Site
				{
					OFFSET 0.000000 0.000000 0.000000
				}
			}
		}
	}
}
MOTION
Frames: 4
Frame Time: 0.016667
-16.810102 88.381096 14.984361 4.635206 -19.874619 -11.981024 -1.041160 0.295441 6.873486 0.195131 0.076100 3.061848 2.352048 -0.523270 6.528970 1.161821 -0.419313 3.070562 -17.247383 9.354833 -1.803219 -0.928800 3.743762 -7.013846 -1.107678 0.400231 -16.758982 0.000000 0.000000 0.000000 90.043106 -0.379068 7.477748 63.507210 -12.708236 2.001871 1.099349 19.253080 32.898514 -6.858603 27.251610 -6.777472 13.223026 -1.922134 38.756008 -0.000017 0.000029 -32.889046 -0.000008 0.000029 -22.551109 0.000010 -0.000006 -0.000005 25.054737 17.639551 -12.408485 19.478828 0.032538 -5.142137 19.549721 1.031056 -4.692977 0.000001 0.000007 -0.000019 27.594519 7.241485 -9.903583 20.066822 -0.567776 -2.108893 20.199705 0.374729 -1.760846 0.000035 -0.000104 0.000000 35.150497 -9.189193 -6.838876 23.766619 1.315433 3.031169 23.538208 -0.534109 2.337806 -0.000039 0.000698 0.000020 38.385872 -26.109831 -5.509133 23.425768 1.998653 9.016564 22.981096 -1.732473 7.616337 0.001058 0.000005 0.000012 0.000000 0.000000 0.000000 0.000000 0.000000 0.000000 -90.056206 0.792225 8.559739 -50.180466 29.116327 5.940410 -1.090722 -22.016428 81.383842 -2.372027 6.404553 1.243841 -11.987449 1.985459 39.257648 0.000016 0.000035 -29.574980 -0.000106 0.000007 -20.582186 -0.000739 -0.000035 -0.002741 -25.778625 16.957203 -7.934339 -15.407210 -0.225305 4.412611 -15.275181 0.754740 4.051050 0.000023 0.000627 -0.000010 -24.677691 7.008027 -7.761659 -16.082573 -0.697702 1.792619 -15.879769 0.259449 1.509640 -0.001743 -0.000029 -0.000177 -27.974491 -8.908689 -6.605945 -19.034769 1.475740 -2.648697 -19.074642 -0.380869 -2.008787 -0.000473 -0.000011 -0.000008 -27.961336 -25.688421 -7.980381 -19.205339 2.611778 -7.605641 -19.439163 -1.164781 -6.221055 -0.000070 -0.000024 -0.000034 0.000000 0.000000 0.000000 0.000000 0.000000 0.000000 -1.744933 5.857823 4.023334 -0.128019 -0.202458 24.060524 -3.355655 -8.091639 10.627840 -0.670246 0.124595 -19.921501 0.000000 0.000000 0.000000 0.000000 0.000000 0.000000 0.000000 0.000000 0.000000 6.861384 5.601193 8.263141 0.275073 0.794883 20.392172 -5.179858 18.551405 27.082939 0.347033 -0.866369 -25.710966 0.000000 0.000000 0.000000 0.000000 0.000000 0.000000 0.000000 0.000000 0.000000 
-16.700647 88.390968 14.907323 4.664477 -19.627556 -11.966402 -1.017703 0.296115 6.895512 0.195277 0.065046 3.076851 2.328172 -0.459238 6.567808 1.124298 -0.391337 3.029588 -17.191414 9.210175 -1.920139 -0.913037 3.608393 -7.088781 -1.084259 0.397030 -16.725849 0.000000 0.000000 0.000000 90.098045 -0.374353 7.562407 63.507526 -13.229654 2.274115 1.053518 19.036665 33.209591 -6.609323 26.984837 -6.402671 13.243781 -1.926319 38.745781 -0.000018 0.000029 -32.920940 -0.000008 0.000030 -22.571377 0.000011 -0.000006 -0.000006 25.070053 17.621187 -12.393583 19.455278 0.031595 -5.149831 19.519732 1.030350 -4.700522 0.000000 0.000007 -0.000019 27.582581 7.234230 -9.913898 20.038239 -0.567895 -2.111921 20.171587 0.374581 -1.763716 0.000036 -0.000108 0.000001 35.089920 -9.182911 -6.899214 23.707434 1.316081 3.036191 23.476309 -0.533710 2.341561 -0.000038 0.000638 0.000021 38.287868 -26.097141 -5.624955 23.334412 2.001960 9.028144 22.894691 -1.730068 7.625319 0.001030 0.000005 0.000011 0.000000 0.000000 0.000000 0.000000 0.000000 0.000000 -90.109573 0.833426 8.560838 -50.411259 30.092930 5.805257 -1.045158 -21.600878 80.718643 -2.519274 6.638909 1.097887 -12.051697 1.990613 39.228573 0.000016 0.000035 -29.731583 -0.000106 0.000007 -20.692606 -0.000725 -0.000036 -0.002955 -25.995638 16.953846 -7.806511 -15.499785 -0.221345 4.436759 -15.372820 0.758802 4.072495 0.000023 0.000535 -0.000010 -24.845959 7.008889 -7.675766 -16.164993 -0.696627 1.801617 -15.960647 0.260663 1.516641 -0.001852 -0.000030 -0.000166 -27.989716 -8.912315 -6.570399 -19.046671 1.475236 -2.662225 -19.100365 -0.382261 -2.018874 -0.000380 -0.000011 -0.000007 -27.847565 -25.708519 -8.010588 -19.169590 2.607810 -7.648597 -19.412115 -1.170045 -6.252762 -0.000110 -0.000024 -0.000033 0.000000 0.000000 0.000000 0.000000 0.000000 0.000000 -1.850395 5.716484 3.936058 -0.130238 -0.208219 24.049557 -3.332861 -8.077601 10.674378 -0.671079 0.125015 -19.916321 0.000000 0.000000 0.000000 0.000000 0.000000 0.000000 0.000000 0.000000 0.000000 6.876407 5.629904 8.258136 0.277537 0.801651 20.235537 -5.154960 18.464594 27.105589 0.356685 -0.868529 -25.700972 0.000000 0.000000 0.000000 0.000000 0.000000 0.000000 0.000000 0.000000 0.000000 
-16.580660 88.404648 14.827299 4.700451 -19.378374 -11.947335 -0.992378 0.296282 6.918250 0.207135 0.051212 3.102229 2.289540 -0.381550 6.602850 1.088378 -0.359388 2.987116 -17.119028 9.071376 -2.034360 -0.895530 3.483964 -7.164840 -1.063005 0.396676 -16.693745 0.000000 0.000000 0.000000 90.135277 -0.365758 7.654334 63.493011 -13.739220 2.558271 1.006500 18.796907 33.566303 -6.379060 26.714561 -6.030676 13.261722 -1.930246 38.736946 -0.000018 0.000030 -32.944187 -0.000008 0.000030 -22.587368 0.000011 -0.000006 -0.000006 25.070568 17.602669 -12.360576 19.410999 0.029791 -5.153369 19.468695 1.028813 -4.704318 0.000000 0.000007 -0.000019 27.550436 7.227221 -9.914056 19.987881 -0.568552 -2.113071 20.121273 0.374109 -1.765046 0.000036 -0.000110 0.000002 35.001572 -9.177976 -6.955562 23.623224 1.317695 3.038625 23.389711 -0.532756 2.343379 -0.000037 0.000580 0.000021 38.157806 -26.090151 -5.741173 23.218744 2.007820 9.031664 22.784639 -1.726178 7.627764 0.001001 0.000005 0.000010 0.000000 0.000000 0.000000 0.000000 0.000000 0.000000 -90.152451 0.871656 8.562917 -50.668877 30.983458 5.624017 -1.012336 -21.194590 79.819550 -2.598532 6.804310 0.885577 -12.103877 1.995107 39.204544 0.000016 0.000035 -29.858091 -0.000107 0.000007 -20.781349 -0.000704 -0.000036 -0.003166 -26.143536 16.948580 -7.656638 -15.549399 -0.218625 4.455745 -15.429253 0.761679 4.089386 0.000023 0.000449 -0.000010 -24.952421 7.009041 -7.578512 -16.203640 -0.696129 1.808481 -15.998146 0.261447 1.521873 -0.001969 -0.000030 -0.000154 -27.944120 -8.916336 -6.525137 -19.013256 1.475734 -2.672229 -19.080103 -0.383063 -2.026515 -0.000292 -0.000011 -0.000007 -27.678219 -25.731007 -8.033896 -19.092884 2.606334 -7.681106 -19.343124 -1.173479 -6.276312 -0.000146 -0.000024 -0.000033 0.000000 0.000000 0.000000 0.000000 0.000000 0.000000 -1.969578 5.567321 3.836479 -0.132544 -0.214355 24.048969 -3.305676 -8.070426 10.725371 -0.673526 0.123539 -19.917028 0.000000 0.000000 0.000000 0.000000 0.000000 0.000000 0.000000 0.000000 0.000000 6.875622 5.663253 8.239371 0.279704 0.807837 20.068565 -5.121126 18.375105 27.141329 0.364213 -0.871184 -25.693426 0.000000 0.000000 0.000000 0.000000 0.000000 0.000000 0.000000 0.000000 0.000000 
-16.450241 88.421165 14.744019 4.742855 -19.122385 -11.923393 -0.966510 0.295718 6.941721 0.227184 0.034962 3.137308 2.237961 -0.293930 6.634503 1.055223 -0.324632 2.943524 -17.024191 8.935703 -2.140819 -0.876170 3.370190 -7.239498 -1.043067 0.399588 -16.663712 0.000000 0.000000 0.000000 90.154114 -0.352972 7.749305 63.464508 -14.226097 2.849897 0.959019 18.533354 33.956905 -6.168822 26.443560 -5.667005 13.275956 -1.933908 38.729824 -0.000018 0.000030 -32.956406 -0.000009 0.000030 -22.597446 0.000011 -0.000007 -0.000006 25.052402 17.583704 -12.312427 19.343931 0.026686 -5.151693 19.394621 1.026010 -4.703434 0.000000 0.000007 -0.000019 27.495312 7.220284 -9.906844 19.913649 -0.569917 -2.111924 20.046432 0.373169 -1.764498 0.000037 -0.000112 0.000002 34.883457 -9.173980 -7.008862 23.511719 1.320544 3.037866 23.275961 -0.531046 2.342788 -0.000037 0.000526 0.000022 37.994625 -26.087706 -5.857734 23.077055 2.017037 9.025278 22.649277 -1.720052 7.622078 0.000970 0.000005 0.000008 0.000000 0.000000 0.000000 0.000000 0.000000 0.000000 -90.182686 0.905403 8.567571 -50.967533 31.798271 5.397149 -0.991933 -20.793631 78.676384 -2.612508 6.902658 0.603663 -12.143677 1.999154 39.185329 0.000015 0.000035 -29.954189 -0.000107 0.000007 -20.848162 -0.000678 -0.000037 -0.003369 -26.222561 16.940237 -7.496147 -15.553812 -0.217500 4.468433 -15.442312 0.762988 4.100713 0.000023 0.000372 -0.000010 -24.997116 7.007968 -7.478966 -16.196976 -0.696324 1.812763 -15.991035 0.261690 1.524973 -0.002094 -0.000031 -0.000142 -27.840492 -8.919851 -6.475401 -18.935371 1.477404 -2.678073 -19.014559 -0.383109 -2.031255 -0.000205 -0.000011 -0.000007 -27.459467 -25.753345 -8.051012 -18.977976 2.607870 -7.701311 -19.234821 -1.174536 -6.290314 -0.000177 -0.000025 -0.000033 0.000000 0.000000 0.000000 0.000000 0.000000 0.000000 -2.102761 5.405898 3.726179 -0.134971 -0.221027 24.057484 -3.272164 -8.073699 10.778790 -0.677474 0.120457 -19.922825 0.000000 0.000000 0.000000 0.000000 0.000000 0.000000 0.000000 0.000000 0.000000 6.859647 5.700094 8.204776 0.281578 0.813512 19.890039 -5.080026 18.278091 27.190914 0.369982 -0.874489 -25.687931 0.000000 0.000000 0.000000 0.000000 0.000000 0.000000 0.000000 0.000000 0.000000 
